<svg width="363" height="369" viewBox="0 0 363 369" fill="none" xmlns="http://www.w3.org/2000/svg">
<path d="M197.426 0.842499C158.592 4.6888 119.483 22.1345 91.9011 48.3718L82.021 57.7128L116.052 91.7801L150.084 125.985L152.966 122.688C162.434 111.698 178.901 102.083 195.368 97.6869C217.186 92.0548 247.65 97.8243 266.45 111.012L270.292 113.759L278.8 106.478C283.466 102.357 299.795 88.0712 315.164 74.6091L342.883 50.1576L335.611 44.1134C319.006 30.6514 296.913 17.8761 278.8 11.4198C251.63 1.66671 225.008 -1.76749 197.426 0.842499Z" fill="white"/>
<path d="M8.51919 154.736L0.285767 162.979L8.93086 171.633L17.4387 180.15L25.9466 171.633L34.5917 162.979L26.3583 154.736C21.8299 150.203 17.8504 146.494 17.4387 146.494C17.0271 146.494 13.0476 150.203 8.51919 154.736Z" fill="#4CAF50"/>
<path d="M48.8128 98.0991L24.5242 122.413L49.2245 147.139L73.9247 171.866L98.625 147.139L123.325 122.413L99.0367 98.0991C85.5888 84.637 74.3364 73.6476 73.9247 73.6476C73.5131 73.6476 62.2607 84.637 48.8128 98.0991Z" fill="#2196F3"/>
<path d="M129.5 138.211L121.267 146.453L129.912 155.107L138.42 163.624L146.928 155.107L155.573 146.453L147.34 138.211C142.811 133.677 138.832 129.968 138.42 129.968C138.008 129.968 134.029 133.677 129.5 138.211Z" fill="#FFEB3B"/>
<path d="M102.742 181.481L86.9611 197.279L103.702 214.038L120.306 230.659L136.224 214.724C145.007 205.933 152.142 198.24 152.142 197.553C152.142 196.042 121.404 165.684 119.895 165.684C119.071 165.684 111.387 172.827 102.742 181.481Z" fill="#F44336"/>
<path d="M37.5605 180.795L25.2103 193.158L37.9721 205.933L50.5967 218.571L63.2213 205.933L75.9831 193.158L63.633 180.795C56.909 174.064 51.0084 168.431 50.5967 168.431C50.1851 168.431 44.2844 174.064 37.5605 180.795Z" fill="#FFEB3B"/>
<path d="M65.4169 233.132C56.4973 242.061 49.2245 249.616 49.2245 249.891C49.2245 250.99 81.0604 281.76 82.1582 281.76C83.6676 281.76 115.092 251.127 115.092 249.753C115.092 248.517 82.9815 216.373 82.021 216.648C81.7465 216.785 74.1992 224.203 65.4169 233.132Z" fill="#4CAF50"/>
<path d="M276.33 248.654C264.254 260.88 251.492 268.298 236.535 272.144C225.831 274.892 204.425 274.754 194.682 272.007C190.565 270.771 185.625 269.534 183.841 269.122C181.234 268.435 177.529 271.457 160.513 288.491L140.478 308.547L124.011 292.063C114.955 282.996 107.133 275.716 106.584 275.853C106.035 276.128 100.409 281.348 93.9594 287.667L82.4326 299.068L75.297 291.925C71.4547 288.079 68.1613 285.194 67.8869 285.469C67.7496 285.606 66.9263 286.843 65.9657 288.079C64.4563 290.002 65.4168 291.925 72.4153 300.579C100.821 335.883 141.027 359.648 184.939 366.928C207.169 370.637 240.926 369.263 261.51 363.631C287.857 356.488 308.303 346.46 330.122 329.701C339.453 322.558 362.232 299.893 362.095 297.832C361.957 296.733 289.503 237.802 288.131 237.665C287.719 237.665 282.368 242.61 276.33 248.654Z" fill="white"/>
<path d="M127.579 252.775C115.778 264.589 114.817 265.963 116.464 268.298C119.071 271.595 140.341 292.063 141.164 292.063C141.576 292.063 147.614 286.293 154.75 279.15L167.511 266.375L154.475 253.05C147.202 245.77 141.164 239.863 140.89 239.863C140.615 239.863 134.578 245.632 127.579 252.775Z" fill="#2196F3"/>
<path d="M16.805 225.22L8.57153 233.462L16.9422 241.841L25.3128 250.083L33.8207 241.704L42.4658 233.187L34.5068 225.082C30.1157 220.686 26.1362 216.977 25.7245 216.977C25.3128 216.977 21.3333 220.686 16.805 225.22Z" fill="#F44336"/>
</svg>
