<svg width="307" height="313" viewBox="0 0 307 313" fill="none" xmlns="http://www.w3.org/2000/svg">
<path d="M167.222 0.714653C134.281 3.97723 101.108 18.7754 77.7116 41.0309L69.3309 48.9543L98.1978 77.8514L127.065 106.865L129.509 104.069C137.54 94.7469 151.508 86.5905 165.476 82.8618C183.983 78.0845 209.824 82.9783 225.771 94.1643L229.03 96.4948L236.246 90.3192C240.204 86.8235 254.055 74.7054 267.092 63.2863L290.604 42.5456L284.435 37.4187C270.351 25.9997 251.611 15.1632 236.246 9.68675C213.199 1.41377 190.618 -1.49924 167.222 0.714653Z" fill="white"/>
<path d="M6.98391 131.253L0 138.245L7.3331 145.585L14.5498 152.81L21.7665 145.585L29.0996 138.245L22.1157 131.253C18.2746 127.408 14.899 124.262 14.5498 124.262C14.2006 124.262 10.8251 127.408 6.98391 131.253Z" fill="white"/>
<path d="M41.1625 83.2114L20.5599 103.836L41.5117 124.809L62.4634 145.783L83.4151 124.809L104.367 103.836L83.7643 83.2114C72.3573 71.7924 62.8126 62.4707 62.4634 62.4707C62.1142 62.4707 52.5695 71.7924 41.1625 83.2114Z" fill="white"/>
<path d="M109.605 117.235L102.621 124.227L109.954 131.568L117.171 138.792L124.387 131.568L131.72 124.227L124.737 117.235C120.895 113.39 117.52 110.244 117.171 110.244C116.821 110.244 113.446 113.39 109.605 117.235Z" fill="white"/>
<path d="M86.9072 153.94L73.5214 167.339L87.722 181.555L101.806 195.654L115.308 182.138C122.758 174.68 128.811 168.155 128.811 167.572C128.811 166.291 102.737 140.54 101.457 140.54C100.759 140.54 94.2403 146.599 86.9072 153.94Z" fill="white"/>
<path d="M31.6178 153.357L21.142 163.844L31.967 174.68L42.6757 185.4L53.3844 174.68L64.2094 163.844L53.7336 153.357C48.03 147.647 43.0249 142.87 42.6757 142.87C42.3265 142.87 37.3214 147.647 31.6178 153.357Z" fill="white"/>
<path d="M55.2467 197.751C47.6808 205.325 41.5117 211.734 41.5117 211.967C41.5117 212.899 68.5162 239 69.4474 239C70.7277 239 97.383 213.016 97.383 211.85C97.383 210.802 70.1457 183.536 69.331 183.769C69.0982 183.885 62.6962 190.178 55.2467 197.751Z" fill="white"/>
<path d="M234.151 210.918C223.908 221.289 213.083 227.581 200.396 230.843C191.317 233.174 173.158 233.057 164.894 230.727C161.402 229.678 157.212 228.629 155.699 228.28C153.487 227.697 150.344 230.261 135.911 244.709L118.917 261.721L104.949 247.739C97.2666 240.048 90.6319 233.873 90.1663 233.989C89.7007 234.222 84.9283 238.65 79.4576 244.01L69.6801 253.681L63.6274 247.622C60.3682 244.36 57.5747 241.913 57.3419 242.146C57.2255 242.262 56.5271 243.311 55.7123 244.36C54.4319 245.991 55.2467 247.622 61.183 254.963C85.2775 284.909 119.382 305.067 156.63 311.243C175.486 314.389 204.12 313.223 221.58 308.446C243.929 302.387 261.272 293.881 279.779 279.665C287.694 273.606 307.017 254.38 306.9 252.633C306.784 251.7 245.325 201.713 244.161 201.597C243.812 201.597 239.273 205.791 234.151 210.918Z" fill="white"/>
<path d="M107.975 214.414C97.9649 224.435 97.1501 225.6 98.5469 227.581C100.758 230.377 118.8 247.739 119.499 247.739C119.848 247.739 124.969 242.845 131.022 236.786L141.847 225.949L130.789 214.647C124.62 208.471 119.499 203.461 119.266 203.461C119.033 203.461 113.911 208.355 107.975 214.414Z" fill="white"/>
<path d="M14.0122 191.04L7.02832 198.031L14.1286 205.139L21.2289 212.13L28.4456 205.022L35.7787 197.798L29.0276 190.923C25.3029 187.195 21.9273 184.049 21.5781 184.049C21.2289 184.049 17.8534 187.195 14.0122 191.04Z" fill="white"/>
</svg>
